<mxfile host="app.diagrams.net" modified="2023-10-02T21:00:28.041Z" agent="Mozilla/5.0 (Windows NT 10.0; Win64; x64) AppleWebKit/537.36 (KHTML, like Gecko) Chrome/117.0.0.0 Safari/537.36" version="22.0.1" etag="LJeIQ7RgImsyiKwo43Vl" type="github">
  <diagram name="Page-1" id="wMBuS6HX6AIFgdO5fYG4">
    <mxGraphModel>
      <root>
        <mxCell id="0" />
        <mxCell id="1" parent="0" />
      </root>
    </mxGraphModel>
  </diagram>
</mxfile>
